<svg xmlns="http://www.w3.org/2000/svg" width="41" height="36" viewBox="0 0 41 36">
  <defs>
    <style>
      .cls-1 {
        fill: #4f4f4f;
        fill-rule: evenodd;
      }
    </style>
  </defs>
  <path id="Assesment_icon_copy" data-name="Assesment icon] copy" class="cls-1" d="M1.436,16.8H15.754a1.193,1.193,0,0,0,1.187-1.2V1.2A1.193,1.193,0,0,0,15.754,0H1.436A1.193,1.193,0,0,0,.25,1.2V15.6A1.193,1.193,0,0,0,1.436,16.8Zm4.1-9.248a1.177,1.177,0,0,1,1.678,0L8.16,8.5,10.88,5.752a1.177,1.177,0,0,1,1.678,0,1.21,1.21,0,0,1,0,1.7L9,11.048a1.177,1.177,0,0,1-1.678,0l-1.78-1.8A1.209,1.209,0,0,1,5.541,7.551ZM1.436,36H15.754a1.193,1.193,0,0,0,1.187-1.2V20.4a1.193,1.193,0,0,0-1.187-1.2H1.436A1.193,1.193,0,0,0,.25,20.4V34.8A1.193,1.193,0,0,0,1.436,36Zm4.1-9.248a1.176,1.176,0,0,1,1.678,0L8.16,27.7l2.721-2.751a1.177,1.177,0,0,1,1.678,0,1.21,1.21,0,0,1,0,1.7L9,30.248a1.176,1.176,0,0,1-1.678,0l-1.78-1.8A1.209,1.209,0,0,1,5.541,26.752ZM40.581,4.287a1.213,1.213,0,0,0,.067-1.105,1.192,1.192,0,0,0-.855-0.691A4.744,4.744,0,0,0,34.774,4.74L33.457,6.957,37.525,9.43ZM20.825,32.88a1.179,1.179,0,0,0,1.628-.411l1.039-1.749a8.069,8.069,0,0,0,3.2-3.058L28.97,23.83,24.9,21.358l-2.29,3.855a8.187,8.187,0,0,0-1.108,4.2l-1.084,1.825a1.208,1.208,0,0,0,.406,1.647h0ZM26.12,19.3L32.231,9.02,36.3,11.492l-6.11,10.284Z"/>
</svg>
