<svg xmlns="http://www.w3.org/2000/svg" width="49" height="40" viewBox="0 0 49 40">
  <defs>
    <style>
      .cls-1 {
        fill: #4f4f4f;
        fill-rule: evenodd;
      }
    </style>
  </defs>
  <path id="mortar_board" data-name="mortar board" class="cls-1" d="M47.094,7.3L24.179,0.857a1.4,1.4,0,0,0-.928.06L1.364,10.272A1.4,1.4,0,0,0,1.531,12.9L24.45,19.4a1.4,1.4,0,0,0,.934-0.061L47.268,9.924A1.4,1.4,0,0,0,47.094,7.3ZM45.885,26.051L45.095,13.9l-2.724,1.172L43.1,26.232a2.8,2.8,0,0,0,.316,4.852l0.445,6.847a1.4,1.4,0,0,0,2.788-.181L46.2,30.9A2.8,2.8,0,0,0,45.885,26.051ZM25.1,22.236a4.18,4.18,0,0,1-1.417-.15L10.8,18.431l0.4,6.131c0.1,1.5,1.746,2.666,4.9,3.467a31.252,31.252,0,0,0,9.428.746,31.257,31.257,0,0,0,9.252-1.961c3.023-1.2,4.507-2.573,4.409-4.073l-0.4-6.131L26.489,21.9A4.181,4.181,0,0,1,25.1,22.236Z"/>
</svg>
