<svg xmlns="http://www.w3.org/2000/svg" width="43" height="32" viewBox="0 0 43 32">
  <defs>
    <style>
      .cls-1 {
        fill: #4f4f4f;
        fill-rule: evenodd;
      }
    </style>
  </defs>
  <path class="cls-1" d="M41.27,29.117H39.424V6.076a2.046,2.046,0,0,0-2.035-2.053H34.054a2.046,2.046,0,0,0-2.035,2.053V29.117H28.984v-9.35a2.046,2.046,0,0,0-2.034-2.053H23.614a2.046,2.046,0,0,0-2.034,2.053v9.35H18.544V24.73a2.046,2.046,0,0,0-2.035-2.053H13.174A2.046,2.046,0,0,0,11.14,24.73v4.387H9.294a1.242,1.242,0,0,0,0,2.483H41.27a1.242,1.242,0,0,0,0-2.483h0ZM14.1,18.019a8.673,8.673,0,0,0,6.179-2.577,8.866,8.866,0,0,0,0-12.465,8.7,8.7,0,0,0-12.359,0A8.883,8.883,0,0,0,6.542,13.646L1.154,19.08a2.264,2.264,0,0,0,0,3.182,2.218,2.218,0,0,0,3.156,0L9.7,16.826a8.686,8.686,0,0,0,4.4,1.192h0ZM10.953,6.038a4.425,4.425,0,0,1,6.288,0,4.512,4.512,0,0,1,0,6.343,4.426,4.426,0,0,1-6.288,0A4.513,4.513,0,0,1,10.953,6.038ZM15.5,10.625a2.014,2.014,0,0,0,0-2.831,1.976,1.976,0,0,0-2.809,0A1.994,1.994,0,0,0,15.5,10.625Z"/>
</svg>
