<svg xmlns="http://www.w3.org/2000/svg" width="38" height="41" viewBox="0 0 38 41">
  <defs>
    <style>
      .cls-1 {
        fill: #4f4f4f;
        fill-rule: evenodd;
      }
    </style>
  </defs>
  <path id="Improve_icon" data-name="Improve icon" class="cls-1" d="M11.622,18.84A1.219,1.219,0,0,0,10.4,17.622H4.088A1.218,1.218,0,0,0,2.869,18.84V35.9h8.752V18.84ZM35.13,11.952a1.219,1.219,0,0,0-1.219-1.219H27.6a1.218,1.218,0,0,0-1.219,1.219V35.9H35.13V11.952ZM23.376,21.078a1.219,1.219,0,0,0-1.219-1.219H15.842a1.219,1.219,0,0,0-1.219,1.219V35.9h8.752V21.078Zm12.779,17.26H1.845a1.219,1.219,0,1,0,0,2.437H36.155A1.219,1.219,0,1,0,36.155,38.338ZM9.132,14.185c0.036,0,.072,0,0.109,0a28.9,28.9,0,0,0,6.472-1.575A36.309,36.309,0,0,0,28.853,4.45c0.023-.023.044-0.047,0.065-0.071V6.254a1.219,1.219,0,0,0,2.438,0V1.443A1.219,1.219,0,0,0,30.137.225H25.324a1.219,1.219,0,1,0,0,2.437H27.2c-0.017.015-.035,0.029-0.051,0.045A33.841,33.841,0,0,1,14.978,10.28a27.166,27.166,0,0,1-5.954,1.473A1.219,1.219,0,0,0,9.132,14.185Z"/>
</svg>
