<svg xmlns="http://www.w3.org/2000/svg" width="35" height="31" viewBox="0 0 35 31">
  <defs>
    <style>
      .cls-1 {
        fill: #4f4f4f;
        fill-rule: evenodd;
      }
    </style>
  </defs>
  <path id="level_icon" data-name="level icon" class="cls-1" d="M33.441,3.365H30.27a4.313,4.313,0,0,0-8.247,0H1.559a1.257,1.257,0,1,0,0,2.514H22.023a4.313,4.313,0,0,0,8.247,0h3.172A1.257,1.257,0,1,0,33.441,3.365Zm-7.3,3.049a1.792,1.792,0,1,1,1.794-1.792A1.8,1.8,0,0,1,26.146,6.414Zm7.3,7.845H12.977a4.313,4.313,0,0,0-8.247,0H1.559a1.257,1.257,0,1,0,0,2.514H4.73a4.313,4.313,0,0,0,8.247,0H33.441A1.257,1.257,0,1,0,33.441,14.259ZM8.854,17.308a1.792,1.792,0,1,1,1.794-1.792A1.795,1.795,0,0,1,8.854,17.308Zm24.588,7.845H30.27a4.313,4.313,0,0,0-8.247,0H1.559a1.257,1.257,0,1,0,0,2.514H22.023a4.313,4.313,0,0,0,8.247,0h3.172A1.257,1.257,0,1,0,33.441,25.153Zm-7.3,3.049a1.792,1.792,0,1,1,1.794-1.792A1.8,1.8,0,0,1,26.146,28.2Z"/>
</svg>
