<svg xmlns="http://www.w3.org/2000/svg" width="24" height="23.4" viewBox="0 0 40 39">
  <defs>
    <style>
      .cls-1 {
        fill: #4f4f4f;
        fill-rule: evenodd;
      }
    </style>
  </defs>
  <path id="icon" class="cls-1" d="M35.9,29.837H31.384a1.128,1.128,0,0,1-1.129-1.126V1.539A1.128,1.128,0,0,1,31.384.413H35.9a1.128,1.128,0,0,1,1.129,1.126V28.711A1.128,1.128,0,0,1,35.9,29.837Zm-9.035,0H22.349a1.128,1.128,0,0,1-1.129-1.126V6.193a1.128,1.128,0,0,1,1.129-1.126h4.518A1.128,1.128,0,0,1,28,6.193V28.711A1.128,1.128,0,0,1,26.867,29.837Zm-9.035,0H13.314a1.128,1.128,0,0,1-1.13-1.126V10.7a1.128,1.128,0,0,1,1.13-1.126h4.518a1.128,1.128,0,0,1,1.13,1.126V28.711A1.128,1.128,0,0,1,17.831,29.837Zm-9.035,0H4.278a1.128,1.128,0,0,1-1.13-1.126V15.2a1.128,1.128,0,0,1,1.13-1.126H8.8A1.128,1.128,0,0,1,9.925,15.2V28.711A1.128,1.128,0,0,1,8.8,29.837Zm10.165,5.63a5.613,5.613,0,0,0,.114,1.126H1.944a1.126,1.126,0,1,1,0-2.252h17.13A5.612,5.612,0,0,0,18.961,35.467Zm20.4,0a1.128,1.128,0,0,1-1.13,1.126H30.141a5.636,5.636,0,0,0,0-2.252h8.095A1.128,1.128,0,0,1,39.366,35.467ZM24.608,38.845A3.378,3.378,0,1,1,28,35.467,3.387,3.387,0,0,1,24.608,38.845Z"/>
</svg>
